<?xml version="1.0" encoding="UTF-8" standalone="no"?>
<svg
   xmlns:dc="http://purl.org/dc/elements/1.1/"
   xmlns:cc="http://creativecommons.org/ns#"
   xmlns:rdf="http://www.w3.org/1999/02/22-rdf-syntax-ns#"
   xmlns:svg="http://www.w3.org/2000/svg"
   xmlns="http://www.w3.org/2000/svg"
   xmlns:sodipodi="http://sodipodi.sourceforge.net/DTD/sodipodi-0.dtd"
   xmlns:inkscape="http://www.inkscape.org/namespaces/inkscape"
   version="1.1"
   viewBox="0 0 698.16138 277.13385"
   stroke-miterlimit="10"
   id="svg69"
   sodipodi:docname="flow_high_level.svg"
   width="698.16138"
   height="277.13385"
   style="fill:none;stroke:none;stroke-linecap:square;stroke-miterlimit:10"
   inkscape:version="0.92.4 (f8dce91, 2019-08-02)">
  <metadata
     id="metadata75">
    <rdf:RDF>
      <cc:Work
         rdf:about="">
        <dc:format>image/svg+xml</dc:format>
        <dc:type
           rdf:resource="http://purl.org/dc/dcmitype/StillImage" />
        <dc:title></dc:title>
      </cc:Work>
    </rdf:RDF>
  </metadata>
  <defs
     id="defs73" />
  <sodipodi:namedview
     pagecolor="#ffffff"
     bordercolor="#666666"
     borderopacity="1"
     objecttolerance="10"
     gridtolerance="10"
     guidetolerance="10"
     inkscape:pageopacity="0"
     inkscape:pageshadow="2"
     inkscape:window-width="1853"
     inkscape:window-height="1025"
     id="namedview71"
     showgrid="false"
     fit-margin-top="0"
     fit-margin-left="0"
     fit-margin-right="0"
     fit-margin-bottom="0"
     inkscape:zoom="0.86915208"
     inkscape:cx="235.98834"
     inkscape:cy="246.57168"
     inkscape:window-x="67"
     inkscape:window-y="27"
     inkscape:window-maximized="1"
     inkscape:current-layer="svg69" />
  <clipPath
     id="p.0">
    <path
       d="M 0,0 H 1024 V 768 H 0 Z"
       id="path2"
       inkscape:connector-curvature="0"
       style="clip-rule:nonzero" />
  </clipPath>
  <g
     id="g4875"
     transform="translate(-66.47244,-40.90551)">
    <path
       d="m 66.47244,40.90551 h 177.6693 V 318.03936 H 66.47244 Z"
       id="path7"
       inkscape:connector-curvature="0"
       style="fill:#cfe2f3;fill-rule:evenodd" />
    <path
       d="m 76.37869,298.45938 q 0,-3.32813 1.78125,-5.20313 1.78125,-1.89062 4.609375,-1.89062 1.84375,0 3.328125,0.89062 1.484375,0.875 2.265625,2.46875 0.78125,1.57813 0.78125,3.57813 0,2.03125 -0.828125,3.64062 -0.8125,1.59375 -2.3125,2.42188 -1.5,0.82812 -3.25,0.82812 -1.875,0 -3.359375,-0.90625 -1.484375,-0.92187 -2.25,-2.5 -0.765625,-1.57812 -0.765625,-3.32812 z m 1.8125,0.0156 q 0,2.42188 1.296875,3.8125 1.296875,1.39063 3.265625,1.39063 2,0 3.28125,-1.40625 1.28125,-1.40625 1.28125,-3.98438 0,-1.625 -0.546875,-2.84375 -0.546875,-1.21875 -1.609375,-1.875 -1.0625,-0.67187 -2.375,-0.67187 -1.890625,0 -3.25,1.29687 -1.34375,1.28125 -1.34375,4.28125 z m 13.527054,6.48438 V 291.6 h 1.765625 v 13.35938 z m 4.886429,0 V 291.6 h 4.609377 q 1.54687,0 2.375,0.20313 1.14062,0.25 1.95312,0.95312 1.0625,0.89063 1.57813,2.28125 0.53125,1.39063 0.53125,3.17188 0,1.51562 -0.35938,2.70312 -0.35937,1.17188 -0.92187,1.9375 -0.54688,0.76563 -1.20313,1.21875 -0.65625,0.4375 -1.59375,0.67188 -0.9375,0.21875 -2.14062,0.21875 z m 1.765625,-1.57813 h 2.859372 q 1.3125,0 2.0625,-0.23437 0.75,-0.25 1.20313,-0.70313 0.625,-0.625 0.96875,-1.6875 0.35937,-1.0625 0.35937,-2.57812 0,-2.09375 -0.6875,-3.21875 -0.6875,-1.125 -1.67187,-1.5 -0.70313,-0.28125 -2.28125,-0.28125 h -2.812502 z m 21.238572,-3.10937 1.76562,0.45312 q -0.5625,2.17188 -2,3.32813 -1.4375,1.14062 -3.53125,1.14062 -2.15625,0 -3.51562,-0.875 -1.34375,-0.89062 -2.0625,-2.54687 -0.70313,-1.67188 -0.70313,-3.59375 0,-2.07813 0.79688,-3.625 0.79687,-1.5625 2.26562,-2.35938 1.48438,-0.8125 3.25,-0.8125 2,0 3.35938,1.01563 1.375,1.01562 1.90625,2.875 l -1.73438,0.40625 q -0.46875,-1.45313 -1.35937,-2.10938 -0.875,-0.67187 -2.20313,-0.67187 -1.54687,0 -2.57812,0.73437 -1.03125,0.73438 -1.45313,1.98438 -0.42187,1.23437 -0.42187,2.5625 0,1.70312 0.5,2.96875 0.5,1.26562 1.54687,1.90625 1.04688,0.625 2.26563,0.625 1.48437,0 2.51562,-0.85938 1.03125,-0.85937 1.39063,-2.54687 z m 15.23437,1.14062 1.60938,0.21875 q -0.26563,1.65625 -1.35938,2.60938 -1.07812,0.9375 -2.67187,0.9375 -1.98438,0 -3.1875,-1.29688 -1.20313,-1.29687 -1.20313,-3.71875 0,-1.57812 0.51563,-2.75 0.51562,-1.17187 1.57812,-1.75 1.0625,-0.59375 2.3125,-0.59375 1.57813,0 2.57813,0.79688 1,0.79687 1.28125,2.26562 l -1.59375,0.23438 q -0.23438,-0.96875 -0.8125,-1.45313 -0.57813,-0.5 -1.39063,-0.5 -1.23437,0 -2.01562,0.89063 -0.78125,0.89062 -0.78125,2.8125 0,1.95312 0.75,2.84375 0.75,0.875 1.95312,0.875 0.96875,0 1.60938,-0.59375 0.65625,-0.59375 0.82812,-1.82813 z m 2.96875,3.54688 V 291.6 h 1.64063 v 13.35938 z m 4.1917,-11.46875 V 291.6 h 1.64062 v 1.89063 z m 0,11.46875 v -9.67188 h 1.64062 v 9.67188 z m 10.76982,-3.10938 1.6875,0.20313 q -0.40625,1.48437 -1.48437,2.3125 -1.07813,0.8125 -2.76563,0.8125 -2.125,0 -3.375,-1.29688 -1.23437,-1.3125 -1.23437,-3.67187 0,-2.45313 1.25,-3.79688 1.26562,-1.34375 3.26562,-1.34375 1.9375,0 3.15625,1.32813 1.23438,1.3125 1.23438,3.70312 0,0.15625 0,0.4375 h -7.21875 q 0.0937,1.59375 0.90625,2.45313 0.8125,0.84375 2.01562,0.84375 0.90625,0 1.54688,-0.46875 0.64062,-0.48438 1.01562,-1.51563 z m -5.39062,-2.65625 h 5.40625 q -0.10938,-1.21875 -0.625,-1.82812 -0.78125,-0.95313 -2.03125,-0.95313 -1.125,0 -1.90625,0.76563 -0.76563,0.75 -0.84375,2.01562 z m 9.14134,5.76563 v -9.67188 h 1.46875 v 1.375 q 1.0625,-1.59375 3.07812,-1.59375 0.875,0 1.60938,0.3125 0.73437,0.3125 1.09375,0.82813 0.375,0.5 0.51562,1.20312 0.0937,0.45313 0.0937,1.59375 v 5.95313 h -1.64062 v -5.89063 q 0,-1 -0.20313,-1.48437 -0.1875,-0.5 -0.67187,-0.79688 -0.48438,-0.29687 -1.14063,-0.29687 -1.04687,0 -1.8125,0.67187 -0.75,0.65625 -0.75,2.51563 v 5.28125 z m 13.95384,-1.46875 0.23438,1.45312 q -0.6875,0.14063 -1.23438,0.14063 -0.89062,0 -1.39062,-0.28125 -0.48438,-0.28125 -0.6875,-0.73438 -0.20313,-0.46875 -0.20313,-1.9375 v -5.57812 h -1.20312 v -1.26563 h 1.20312 v -2.39062 l 1.625,-0.98438 v 3.375 h 1.65625 v 1.26563 h -1.65625 v 5.67187 q 0,0.6875 0.0781,0.89063 0.0937,0.20312 0.28125,0.32812 0.20312,0.10938 0.57812,0.10938 0.26563,0 0.71875,-0.0625 z"
       id="path9"
       inkscape:connector-curvature="0"
       style="fill:#000000;fill-rule:nonzero" />
    <path
       d="m 673.9921,262.20996 h 90.14172 v 45.88977 H 673.9921 Z"
       id="path11"
       inkscape:connector-curvature="0"
       style="fill:#ffffff;fill-rule:evenodd" />
    <path
       d="m 673.9921,262.20996 h 90.14172 v 45.88977 H 673.9921 Z"
       id="path13"
       inkscape:connector-curvature="0"
       style="fill-rule:evenodd;stroke:#000000;stroke-width:1;stroke-linecap:butt;stroke-linejoin:round" />
    <path
       d="M 684.4296,289.12997 V 275.7706 h 4.60938 q 1.54687,0 2.375,0.20312 1.14062,0.25 1.95312,0.95313 1.0625,0.89062 1.57813,2.28125 0.53125,1.39062 0.53125,3.17187 0,1.51563 -0.35938,2.70313 -0.35937,1.17187 -0.92187,1.9375 -0.54688,0.76562 -1.20313,1.21875 -0.65625,0.4375 -1.59375,0.67187 -0.9375,0.21875 -2.14062,0.21875 z m 1.76563,-1.57812 h 2.85937 q 1.3125,0 2.0625,-0.23438 0.75,-0.25 1.20313,-0.70312 0.625,-0.625 0.96875,-1.6875 0.35937,-1.0625 0.35937,-2.57813 0,-2.09375 -0.6875,-3.21875 -0.6875,-1.125 -1.67187,-1.5 -0.70313,-0.28125 -2.28125,-0.28125 h -2.8125 z m 11.73858,1.57812 V 275.7706 h 5.92188 q 1.78125,0 2.70312,0.35937 0.9375,0.35938 1.48438,1.28125 0.5625,0.90625 0.5625,2.01563 0,1.40625 -0.92188,2.39062 -0.92187,0.96875 -2.84375,1.23438 0.70313,0.34375 1.07813,0.67187 0.76562,0.70313 1.45312,1.76563 l 2.32813,3.64062 h -2.21875 l -1.76563,-2.78125 q -0.78125,-1.20312 -1.28125,-1.82812 -0.5,-0.64063 -0.90625,-0.89063 -0.39062,-0.26562 -0.79687,-0.35937 -0.29688,-0.0781 -0.98438,-0.0781 h -2.04687 v 5.9375 z m 1.76563,-7.45312 h 3.79687 q 1.21875,0 1.89063,-0.25 0.6875,-0.26563 1.04687,-0.8125 0.35938,-0.54688 0.35938,-1.1875 0,-0.95313 -0.6875,-1.5625 -0.6875,-0.60938 -2.1875,-0.60938 h -4.21875 z m 11.08227,3.15625 1.65625,-0.14063 q 0.125,1 0.54688,1.64063 0.4375,0.64062 1.34375,1.04687 0.92187,0.39063 2.0625,0.39063 1,0 1.78125,-0.29688 0.78125,-0.29687 1.15625,-0.8125 0.375,-0.53125 0.375,-1.15625 0,-0.625 -0.375,-1.09375 -0.35938,-0.46875 -1.1875,-0.79687 -0.54688,-0.20313 -2.39063,-0.64063 -1.82812,-0.45312 -2.5625,-0.84375 -0.96875,-0.5 -1.4375,-1.23437 -0.46875,-0.75 -0.46875,-1.67188 0,-1 0.57813,-1.875 0.57812,-0.89062 1.67187,-1.34375 1.10938,-0.45312 2.45313,-0.45312 1.48437,0 2.60937,0.48437 1.14063,0.46875 1.75,1.40625 0.60938,0.92188 0.65625,2.09375 l -1.6875,0.125 q -0.14062,-1.26562 -0.9375,-1.90625 -0.78125,-0.65625 -2.3125,-0.65625 -1.60937,0 -2.34375,0.59375 -0.73437,0.59375 -0.73437,1.42188 0,0.71875 0.53125,1.17187 0.5,0.46875 2.65625,0.96875 2.15625,0.48438 2.95312,0.84375 1.17188,0.53125 1.71875,1.35938 0.5625,0.82812 0.5625,1.90625 0,1.0625 -0.60937,2.01562 -0.60938,0.9375 -1.75,1.46875 -1.14063,0.51563 -2.57813,0.51563 -1.8125,0 -3.04687,-0.53125 -1.21875,-0.53125 -1.92188,-1.59375 -0.6875,-1.0625 -0.71875,-2.40625 z"
       id="path15"
       inkscape:connector-curvature="0"
       style="fill:#000000;fill-rule:nonzero" />
    <path
       d="m 657.9921,246.20998 h 90.14172 v 45.88975 H 657.9921 Z"
       id="path17"
       inkscape:connector-curvature="0"
       style="fill:#ffffff;fill-rule:evenodd" />
    <path
       d="m 657.9921,246.20998 h 90.14172 v 45.88975 H 657.9921 Z"
       id="path19"
       inkscape:connector-curvature="0"
       style="fill-rule:evenodd;stroke:#000000;stroke-width:1;stroke-linecap:butt;stroke-linejoin:round" />
    <path
       d="M 668.4296,273.12997 V 259.7706 h 4.60938 q 1.54687,0 2.375,0.20312 1.14062,0.25 1.95312,0.95313 1.0625,0.89062 1.57813,2.28125 0.53125,1.39062 0.53125,3.17187 0,1.51563 -0.35938,2.70313 -0.35937,1.17187 -0.92187,1.9375 -0.54688,0.76562 -1.20313,1.21875 -0.65625,0.4375 -1.59375,0.67187 -0.9375,0.21875 -2.14062,0.21875 z m 1.76563,-1.57812 h 2.85937 q 1.3125,0 2.0625,-0.23438 0.75,-0.25 1.20313,-0.70312 0.625,-0.625 0.96875,-1.6875 0.35937,-1.0625 0.35937,-2.57813 0,-2.09375 -0.6875,-3.21875 -0.6875,-1.125 -1.67187,-1.5 -0.70313,-0.28125 -2.28125,-0.28125 h -2.8125 z m 11.73858,1.57812 V 259.7706 h 5.92188 q 1.78125,0 2.70312,0.35937 0.9375,0.35938 1.48438,1.28125 0.5625,0.90625 0.5625,2.01563 0,1.40625 -0.92188,2.39062 -0.92187,0.96875 -2.84375,1.23438 0.70313,0.34375 1.07813,0.67187 0.76562,0.70313 1.45312,1.76563 l 2.32813,3.64062 h -2.21875 l -1.76563,-2.78125 q -0.78125,-1.20312 -1.28125,-1.82812 -0.5,-0.64063 -0.90625,-0.89063 -0.39062,-0.26562 -0.79687,-0.35937 -0.29688,-0.0781 -0.98438,-0.0781 h -2.04687 v 5.9375 z m 1.76563,-7.45312 h 3.79687 q 1.21875,0 1.89063,-0.25 0.6875,-0.26563 1.04687,-0.8125 0.35938,-0.54688 0.35938,-1.1875 0,-0.95313 -0.6875,-1.5625 -0.6875,-0.60938 -2.1875,-0.60938 h -4.21875 z m 11.08227,3.15625 1.65625,-0.14063 q 0.125,1 0.54688,1.64063 0.4375,0.64062 1.34375,1.04687 0.92187,0.39063 2.0625,0.39063 1,0 1.78125,-0.29688 0.78125,-0.29687 1.15625,-0.8125 0.375,-0.53125 0.375,-1.15625 0,-0.625 -0.375,-1.09375 -0.35938,-0.46875 -1.1875,-0.79687 -0.54688,-0.20313 -2.39063,-0.64063 -1.82812,-0.45312 -2.5625,-0.84375 -0.96875,-0.5 -1.4375,-1.23437 -0.46875,-0.75 -0.46875,-1.67188 0,-1 0.57813,-1.875 0.57812,-0.89062 1.67187,-1.34375 1.10938,-0.45312 2.45313,-0.45312 1.48437,0 2.60937,0.48437 1.14063,0.46875 1.75,1.40625 0.60938,0.92188 0.65625,2.09375 l -1.6875,0.125 q -0.14062,-1.26562 -0.9375,-1.90625 -0.78125,-0.65625 -2.3125,-0.65625 -1.60937,0 -2.34375,0.59375 -0.73437,0.59375 -0.73437,1.42188 0,0.71875 0.53125,1.17187 0.5,0.46875 2.65625,0.96875 2.15625,0.48438 2.95312,0.84375 1.17188,0.53125 1.71875,1.35938 0.5625,0.82812 0.5625,1.90625 0,1.0625 -0.60937,2.01562 -0.60938,0.9375 -1.75,1.46875 -1.14063,0.51563 -2.57813,0.51563 -1.8125,0 -3.04687,-0.53125 -1.21875,-0.53125 -1.92188,-1.59375 -0.6875,-1.0625 -0.71875,-2.40625 z"
       id="path21"
       inkscape:connector-curvature="0"
       style="fill:#000000;fill-rule:nonzero" />
    <path
       d="m 505.99213,262.20996 h 90.14172 v 45.88977 h -90.14172 z"
       id="path23"
       inkscape:connector-curvature="0"
       style="fill:#ffffff;fill-rule:evenodd" />
    <path
       d="m 505.99213,262.20996 h 90.14172 v 45.88977 h -90.14172 z"
       id="path25"
       inkscape:connector-curvature="0"
       style="fill-rule:evenodd;stroke:#000000;stroke-width:1;stroke-linecap:butt;stroke-linejoin:round" />
    <path
       d="m 519.8359,289.12997 v -11.78125 h -4.40625 v -1.57812 h 10.57813 v 1.57812 h -4.40625 v 11.78125 z m 8.021,0 V 275.7706 h 9.65625 v 1.57812 h -7.875 v 4.09375 h 7.375 v 1.5625 h -7.375 v 4.54688 h 8.1875 v 1.57812 z m 11.81854,-4.29687 1.65625,-0.14063 q 0.125,1 0.54687,1.64063 0.4375,0.64062 1.34375,1.04687 0.92188,0.39063 2.0625,0.39063 1,0 1.78125,-0.29688 0.78125,-0.29687 1.15625,-0.8125 0.375,-0.53125 0.375,-1.15625 0,-0.625 -0.375,-1.09375 -0.35937,-0.46875 -1.1875,-0.79687 -0.54687,-0.20313 -2.39062,-0.64063 -1.82813,-0.45312 -2.5625,-0.84375 -0.96875,-0.5 -1.4375,-1.23437 -0.46875,-0.75 -0.46875,-1.67188 0,-1 0.57812,-1.875 0.57813,-0.89062 1.67188,-1.34375 1.10937,-0.45312 2.45312,-0.45312 1.48438,0 2.60938,0.48437 1.14062,0.46875 1.75,1.40625 0.60937,0.92188 0.65625,2.09375 l -1.6875,0.125 q -0.14063,-1.26562 -0.9375,-1.90625 -0.78125,-0.65625 -2.3125,-0.65625 -1.60938,0 -2.34375,0.59375 -0.73438,0.59375 -0.73438,1.42188 0,0.71875 0.53125,1.17187 0.5,0.46875 2.65625,0.96875 2.15625,0.48438 2.95313,0.84375 1.17187,0.53125 1.71875,1.35938 0.5625,0.82812 0.5625,1.90625 0,1.0625 -0.60938,2.01562 -0.60937,0.9375 -1.75,1.46875 -1.14062,0.51563 -2.57812,0.51563 -1.8125,0 -3.04688,-0.53125 -1.21875,-0.53125 -1.92187,-1.59375 -0.6875,-1.0625 -0.71875,-2.40625 z"
       id="path27"
       inkscape:connector-curvature="0"
       style="fill:#000000;fill-rule:nonzero" />
    <path
       d="m 489.99213,246.20998 h 90.14172 v 45.88975 h -90.14172 z"
       id="path29"
       inkscape:connector-curvature="0"
       style="fill:#ffffff;fill-rule:evenodd" />
    <path
       d="m 489.99213,246.20998 h 90.14172 v 45.88975 h -90.14172 z"
       id="path31"
       inkscape:connector-curvature="0"
       style="fill-rule:evenodd;stroke:#000000;stroke-width:1;stroke-linecap:butt;stroke-linejoin:round" />
    <path
       d="m 503.83588,273.12997 v -11.78125 h -4.40625 v -1.57812 h 10.57812 v 1.57812 h -4.40625 v 11.78125 z m 8.02097,0 V 259.7706 h 9.65628 v 1.57812 h -7.875 v 4.09375 h 7.375 v 1.5625 h -7.375 v 4.54688 h 8.1875 v 1.57812 z m 11.81857,-4.29687 1.65625,-0.14063 q 0.125,1 0.54687,1.64063 0.4375,0.64062 1.34375,1.04687 0.92188,0.39063 2.0625,0.39063 1,0 1.78125,-0.29688 0.78125,-0.29687 1.15625,-0.8125 0.375,-0.53125 0.375,-1.15625 0,-0.625 -0.375,-1.09375 -0.35937,-0.46875 -1.1875,-0.79687 -0.54687,-0.20313 -2.39062,-0.64063 -1.82813,-0.45312 -2.5625,-0.84375 -0.96875,-0.5 -1.4375,-1.23437 -0.46875,-0.75 -0.46875,-1.67188 0,-1 0.57812,-1.875 0.57813,-0.89062 1.67188,-1.34375 1.10937,-0.45312 2.45312,-0.45312 1.48438,0 2.60938,0.48437 1.14062,0.46875 1.75,1.40625 0.60937,0.92188 0.65625,2.09375 l -1.6875,0.125 q -0.14063,-1.26562 -0.9375,-1.90625 -0.78125,-0.65625 -2.3125,-0.65625 -1.60938,0 -2.34375,0.59375 -0.73438,0.59375 -0.73438,1.42188 0,0.71875 0.53125,1.17187 0.5,0.46875 2.65625,0.96875 2.15625,0.48438 2.95313,0.84375 1.17187,0.53125 1.71875,1.35938 0.5625,0.82812 0.5625,1.90625 0,1.0625 -0.60938,2.01562 -0.60937,0.9375 -1.75,1.46875 -1.14062,0.51563 -2.57812,0.51563 -1.8125,0 -3.04688,-0.53125 -1.21875,-0.53125 -1.92187,-1.59375 -0.6875,-1.0625 -0.71875,-2.40625 z"
       id="path33"
       inkscape:connector-curvature="0"
       style="fill:#000000;fill-rule:nonzero" />
    <path
       d="M 89.99213,63.404198 H 219.85039 V 132.94751 H 89.99213 Z"
       id="path35"
       inkscape:connector-curvature="0"
       style="fill:#ffffff;fill-rule:evenodd" />
    <path
       d="M 89.99213,63.404198 H 219.85039 V 132.94751 H 89.99213 Z"
       id="path37"
       inkscape:connector-curvature="0"
       style="fill-rule:evenodd;stroke:#000000;stroke-width:1;stroke-linecap:butt;stroke-linejoin:round" />
    <path
       d="M 100.46088,90.324196 V 76.964821 h 9.65625 v 1.578125 h -7.875 v 4.09375 h 7.375 v 1.5625 h -7.375 v 4.546875 h 8.1875 v 1.578125 z m 12.3342,0 V 76.964821 h 1.78125 v 11.78125 h 6.5625 v 1.578125 z m 10.75071,0 V 76.964821 h 1.76563 v 13.359375 z m 3.52706,0 5.17187,-6.953125 -4.5625,-6.40625 h 2.10938 l 2.42187,3.4375 q 0.75,1.0625 1.07813,1.625 0.4375,-0.71875 1.04687,-1.515625 l 2.6875,-3.546875 h 1.92188 l -4.6875,6.296875 5.0625,7.0625 h -2.1875 l -3.35938,-4.765625 q -0.28125,-0.40625 -0.59375,-0.890625 -0.4375,0.734375 -0.625,1 l -3.35937,4.65625 z m 14.09982,0 V 76.964821 h 1.76563 v 13.359375 z m 4.91768,0 V 76.964821 h 5.92188 q 1.78125,0 2.70312,0.359375 0.9375,0.359375 1.48438,1.28125 0.5625,0.90625 0.5625,2.015625 0,1.40625 -0.92188,2.390625 -0.92187,0.96875 -2.84375,1.234375 0.70313,0.34375 1.07813,0.671875 0.76562,0.703125 1.45312,1.765625 l 2.32813,3.640625 h -2.21875 l -1.76563,-2.78125 q -0.78125,-1.203125 -1.28125,-1.828125 -0.5,-0.640625 -0.90625,-0.890625 -0.39062,-0.265625 -0.79687,-0.359375 -0.29688,-0.07813 -0.98438,-0.07813 h -2.04687 v 5.9375 z m 1.76563,-7.453125 h 3.79687 q 1.21875,0 1.89063,-0.25 0.6875,-0.265625 1.04687,-0.8125 0.35938,-0.546875 0.35938,-1.1875 0,-0.953125 -0.6875,-1.5625 -0.6875,-0.609375 -2.1875,-0.609375 h -4.21875 z m 14.36067,7.453125 5.125,-13.359375 h 1.90625 l 5.46875,13.359375 h -2.01563 l -1.54687,-4.046875 h -5.59375 l -1.46875,4.046875 z m 3.85937,-5.484375 h 4.53125 l -1.40625,-3.703125 q -0.625,-1.6875 -0.9375,-2.765625 -0.26562,1.28125 -0.71875,2.546875 z m 8.5842,5.484375 5.125,-13.359375 h 1.90625 l 5.46875,13.359375 h -2.01562 l -1.54688,-4.046875 h -5.59375 l -1.46875,4.046875 z m 3.85938,-5.484375 h 4.53125 l -1.40625,-3.703125 q -0.625,-1.6875 -0.9375,-2.765625 -0.26563,1.28125 -0.71875,2.546875 z m 10.34982,5.484375 V 76.964821 h 1.76562 v 13.359375 z"
       id="path39"
       inkscape:connector-curvature="0"
       style="fill:#000000;fill-rule:nonzero" />
    <path
       d="m 98.96088,112.3242 5.125,-13.359379 h 1.90625 l 5.46875,13.359379 h -2.01562 l -1.54688,-4.04688 h -5.59375 l -1.46875,4.04688 z m 3.85938,-5.48438 h 4.53125 l -1.40625,-3.70312 q -0.625,-1.6875 -0.9375,-2.76563 -0.26563,1.28125 -0.71875,2.54688 z m 9.45919,1.1875 1.65625,-0.14062 q 0.125,1 0.54688,1.64062 0.4375,0.64063 1.34375,1.04688 0.92187,0.39062 2.0625,0.39062 1,0 1.78125,-0.29687 0.78125,-0.29688 1.15625,-0.8125 0.375,-0.53125 0.375,-1.15625 0,-0.625 -0.375,-1.09375 -0.35938,-0.46875 -1.1875,-0.79688 -0.54688,-0.20312 -2.39063,-0.64062 -1.82812,-0.45313 -2.5625,-0.84375 -0.96875,-0.5 -1.4375,-1.23438 -0.46875,-0.75 -0.46875,-1.67187 0,-1 0.57813,-1.875 0.57812,-0.890629 1.67187,-1.343754 1.10938,-0.453125 2.45313,-0.453125 1.48437,0 2.60937,0.484375 1.14063,0.46875 1.75,1.406254 0.60938,0.92187 0.65625,2.09375 l -1.6875,0.125 q -0.14062,-1.26563 -0.9375,-1.90625 -0.78125,-0.65625 -2.3125,-0.65625 -1.60937,0 -2.34375,0.59375 -0.73437,0.59375 -0.73437,1.42187 0,0.71875 0.53125,1.17188 0.5,0.46875 2.65625,0.96875 2.15625,0.48437 2.95312,0.84375 1.17188,0.53125 1.71875,1.35937 0.5625,0.82813 0.5625,1.90625 0,1.0625 -0.60937,2.01563 -0.60938,0.9375 -1.75,1.46875 -1.14063,0.51562 -2.57813,0.51562 -1.8125,0 -3.04687,-0.53125 -1.21875,-0.53125 -1.92188,-1.59375 -0.6875,-1.0625 -0.71875,-2.40625 z m 11.59983,4.53125 3.875,-13.812499 h 1.3125 l -3.85938,13.812499 z m 6.08955,-6.73437 q 0,-3.32813 1.78125,-5.20313 1.78125,-1.890624 4.60937,-1.890624 1.84375,0 3.32813,0.890625 1.48437,0.874999 2.26562,2.468749 0.78125,1.57813 0.78125,3.57813 0,2.03125 -0.82812,3.64062 -0.8125,1.59375 -2.3125,2.42188 -1.5,0.82812 -3.25,0.82812 -1.875,0 -3.35938,-0.90625 -1.48437,-0.92187 -2.25,-2.5 -0.76562,-1.57812 -0.76562,-3.32812 z m 1.8125,0.0156 q 0,2.42188 1.29687,3.8125 1.29688,1.39063 3.26563,1.39063 2,0 3.28125,-1.40625 1.28125,-1.40625 1.28125,-3.98438 0,-1.625 -0.54688,-2.84375 -0.54687,-1.21875 -1.60937,-1.875 -1.0625,-0.67187 -2.375,-0.67187 -1.89063,0 -3.25,1.29687 -1.34375,1.28125 -1.34375,4.28125 z m 13.52705,6.48438 V 98.964821 h 1.76563 V 112.3242 Z m 4.88643,0 V 98.964821 h 4.60938 q 1.54687,0 2.375,0.203125 1.14062,0.25 1.95312,0.953124 1.0625,0.89063 1.57813,2.28125 0.53125,1.39063 0.53125,3.17188 0,1.51562 -0.35938,2.70312 -0.35937,1.17188 -0.92187,1.9375 -0.54688,0.76563 -1.20313,1.21875 -0.65625,0.4375 -1.59375,0.67188 -0.9375,0.21875 -2.14062,0.21875 z m 1.76563,-1.57813 h 2.85937 q 1.3125,0 2.0625,-0.23437 0.75,-0.25 1.20313,-0.70313 0.625,-0.625 0.96875,-1.6875 0.35937,-1.0625 0.35937,-2.57812 0,-2.09375 -0.6875,-3.21875 -0.6875,-1.125 -1.67187,-1.5 -0.70313,-0.28125 -2.28125,-0.28125 h -2.8125 z m 21.23857,-3.10937 1.76562,0.45312 q -0.5625,2.17188 -2,3.32813 -1.4375,1.14062 -3.53125,1.14062 -2.15625,0 -3.51562,-0.875 -1.34375,-0.89062 -2.0625,-2.54687 -0.70313,-1.67188 -0.70313,-3.59375 0,-2.07813 0.79688,-3.625 0.79687,-1.5625 2.26562,-2.359379 1.48438,-0.8125 3.25,-0.8125 2,0 3.35938,1.015625 1.375,1.015624 1.90625,2.875004 l -1.73438,0.40625 q -0.46875,-1.45313 -1.35937,-2.10938 -0.875,-0.67187 -2.20313,-0.67187 -1.54687,0 -2.57812,0.73437 -1.03125,0.73438 -1.45313,1.98438 -0.42187,1.23437 -0.42187,2.5625 0,1.70312 0.5,2.96875 0.5,1.26562 1.54687,1.90625 1.04688,0.625 2.26563,0.625 1.48437,0 2.51562,-0.85938 1.03125,-0.85937 1.39063,-2.54687 z m 8.59375,-1.8125 q 0,-3.32813 1.78125,-5.20313 1.78125,-1.890624 4.60937,-1.890624 1.84375,0 3.32813,0.890625 1.48437,0.874999 2.26562,2.468749 0.78125,1.57813 0.78125,3.57813 0,2.03125 -0.82812,3.64062 -0.8125,1.59375 -2.3125,2.42188 -1.5,0.82812 -3.25,0.82812 -1.875,0 -3.35938,-0.90625 -1.48437,-0.92187 -2.25,-2.5 -0.76562,-1.57812 -0.76562,-3.32812 z m 1.8125,0.0156 q 0,2.42188 1.29687,3.8125 1.29688,1.39063 3.26563,1.39063 2,0 3.28125,-1.40625 1.28125,-1.40625 1.28125,-3.98438 0,-1.625 -0.54688,-2.84375 -0.54687,-1.21875 -1.60937,-1.875 -1.0625,-0.67187 -2.375,-0.67187 -1.89063,0 -3.25,1.29687 -1.34375,1.28125 -1.34375,4.28125 z m 13.23018,6.48438 V 98.964821 h 5.04687 q 1.32813,0 2.03125,0.125 0.96875,0.171875 1.64063,0.640625 0.67187,0.453124 1.07812,1.281254 0.40625,0.82812 0.40625,1.82812 0,1.70313 -1.09375,2.89063 -1.07812,1.17187 -3.92187,1.17187 h -3.42188 v 5.42188 z m 1.76562,-7 h 3.45313 q 1.71875,0 2.4375,-0.64063 0.71875,-0.64062 0.71875,-1.79687 0,-0.84375 -0.42188,-1.4375 -0.42187,-0.59375 -1.125,-0.78125 -0.4375,-0.125 -1.64062,-0.125 h -3.42188 z"
       id="path41"
       inkscape:connector-curvature="0"
       style="fill:#000000;fill-rule:nonzero" />
    <path
       d="m 89.99213,230.20998 h 129.85826 v 45.88975 H 89.99213 Z"
       id="path43"
       inkscape:connector-curvature="0"
       style="fill:#ffffff;fill-rule:evenodd" />
    <path
       d="m 89.99213,230.20998 h 129.85826 v 45.88975 H 89.99213 Z"
       id="path45"
       inkscape:connector-curvature="0"
       style="fill-rule:evenodd;stroke:#000000;stroke-width:1;stroke-linecap:butt;stroke-linejoin:round" />
    <path
       d="M 102.75775,257.12997 99.2265,243.7706 h 1.8125 l 2.03125,8.76562 q 0.32813,1.375 0.5625,2.71875 0.5,-2.14062 0.59375,-2.46875 l 2.54688,-9.01562 h 2.125 l 1.92187,6.76562 q 0.71875,2.51563 1.03125,4.71875 0.26563,-1.26562 0.67188,-2.89062 l 2.09375,-8.59375 h 1.78125 l -3.67188,13.35937 h -1.70312 l -2.8125,-10.17187 q -0.35938,-1.28125 -0.42188,-1.5625 -0.20312,0.90625 -0.39062,1.5625 l -2.82813,10.17187 z m 21.36517,-3.10937 1.6875,0.20312 q -0.40625,1.48438 -1.48437,2.3125 -1.07813,0.8125 -2.76563,0.8125 -2.125,0 -3.375,-1.29687 -1.23437,-1.3125 -1.23437,-3.67188 0,-2.45312 1.25,-3.79687 1.26562,-1.34375 3.26562,-1.34375 1.9375,0 3.15625,1.32812 1.23438,1.3125 1.23438,3.70313 0,0.15625 0,0.4375 h -7.21875 q 0.0937,1.59375 0.90625,2.45312 0.8125,0.84375 2.01562,0.84375 0.90625,0 1.54688,-0.46875 0.64062,-0.48437 1.01562,-1.51562 z m -5.39062,-2.65625 h 5.40625 q -0.10938,-1.21875 -0.625,-1.82813 -0.78125,-0.95312 -2.03125,-0.95312 -1.125,0 -1.90625,0.76562 -0.76563,0.75 -0.84375,2.01563 z m 10.64134,5.76562 h -1.51563 V 243.7706 h 1.64063 v 4.76562 q 1.04687,-1.29687 2.65625,-1.29687 0.89062,0 1.6875,0.35937 0.79687,0.35938 1.3125,1.01563 0.51562,0.64062 0.79687,1.5625 0.29688,0.92187 0.29688,1.96875 0,2.48437 -1.23438,3.84375 -1.21875,1.35937 -2.95312,1.35937 -1.70313,0 -2.6875,-1.4375 z m -0.0156,-4.90625 q 0,1.73438 0.48438,2.51563 0.76562,1.26562 2.09375,1.26562 1.07812,0 1.85937,-0.9375 0.78125,-0.9375 0.78125,-2.78125 0,-1.89062 -0.75,-2.79687 -0.75,-0.90625 -1.82812,-0.90625 -1.0625,0 -1.85938,0.9375 -0.78125,0.9375 -0.78125,2.70312 z m 14.07465,8.60938 v -13.375 h 1.48438 v 1.25 q 0.53125,-0.73438 1.1875,-1.09375 0.67187,-0.375 1.625,-0.375 1.23437,0 2.17187,0.64062 0.95313,0.625 1.4375,1.79688 0.48438,1.15625 0.48438,2.54687 0,1.48438 -0.53125,2.67188 -0.53125,1.1875 -1.54688,1.82812 -1.01562,0.625 -2.14062,0.625 -0.8125,0 -1.46875,-0.34375 -0.65625,-0.34375 -1.0625,-0.875 v 4.70313 z m 1.48438,-8.48438 q 0,1.85938 0.75,2.76563 0.76562,0.89062 1.82812,0.89062 1.09375,0 1.875,-0.92187 0.78125,-0.9375 0.78125,-2.875 0,-1.84375 -0.76562,-2.76563 -0.75,-0.92187 -1.8125,-0.92187 -1.04688,0 -1.85938,0.98437 -0.79687,0.96875 -0.79687,2.84375 z m 8.28196,-0.0625 q 0,-2.6875 1.48438,-3.96875 1.25,-1.07812 3.04687,-1.07812 2,0 3.26563,1.3125 1.26562,1.29687 1.26562,3.60937 0,1.85938 -0.5625,2.9375 -0.5625,1.0625 -1.64062,1.65625 -1.0625,0.59375 -2.32813,0.59375 -2.03125,0 -3.28125,-1.29687 -1.25,-1.3125 -1.25,-3.76563 z m 1.6875,0 q 0,1.85938 0.79688,2.79688 0.8125,0.92187 2.04687,0.92187 1.21875,0 2.03125,-0.92187 0.8125,-0.9375 0.8125,-2.84375 0,-1.79688 -0.8125,-2.71875 -0.8125,-0.92188 -2.03125,-0.92188 -1.23437,0 -2.04687,0.92188 -0.79688,0.90625 -0.79688,2.76562 z m 9.28197,4.84375 v -9.67187 h 1.46875 v 1.46875 q 0.5625,-1.03125 1.03125,-1.35938 0.48438,-0.32812 1.0625,-0.32812 0.82813,0 1.6875,0.53125 l -0.5625,1.51562 q -0.60937,-0.35937 -1.20312,-0.35937 -0.54688,0 -0.96875,0.32812 -0.42188,0.32813 -0.60938,0.89063 -0.28125,0.875 -0.28125,1.92187 v 5.0625 z m 9.80643,-1.46875 0.23437,1.45313 q -0.6875,0.14062 -1.23437,0.14062 -0.89063,0 -1.39063,-0.28125 -0.48437,-0.28125 -0.6875,-0.73437 -0.20312,-0.46875 -0.20312,-1.9375 v -5.57813 h -1.20313 v -1.26562 h 1.20313 v -2.39063 l 1.625,-0.98437 v 3.375 h 1.65625 v 1.26562 h -1.65625 v 5.67188 q 0,0.6875 0.0781,0.89062 0.0937,0.20313 0.28125,0.32813 0.20313,0.10937 0.57813,0.10937 0.26562,0 0.71875,-0.0625 z m 7.91768,0.28125 q -0.92188,0.76563 -1.76563,1.09375 -0.82812,0.3125 -1.79687,0.3125 -1.59375,0 -2.45313,-0.78125 -0.85937,-0.78125 -0.85937,-1.98437 0,-0.71875 0.32812,-1.29688 0.32813,-0.59375 0.84375,-0.9375 0.53125,-0.35937 1.1875,-0.54687 0.46875,-0.125 1.45313,-0.25 1.98437,-0.23438 2.92187,-0.5625 0.0156,-0.34375 0.0156,-0.42188 0,-1 -0.46875,-1.42187 -0.625,-0.54688 -1.875,-0.54688 -1.15625,0 -1.70313,0.40625 -0.54687,0.40625 -0.8125,1.42188 l -1.60937,-0.21875 q 0.21875,-1.01563 0.71875,-1.64063 0.5,-0.64062 1.45312,-0.98437 0.95313,-0.34375 2.1875,-0.34375 1.25,0 2.01563,0.29687 0.78125,0.28125 1.14062,0.73438 0.375,0.4375 0.51563,1.10937 0.0781,0.42188 0.0781,1.51563 v 2.1875 q 0,2.28125 0.10938,2.89062 0.10937,0.59375 0.40625,1.15625 h -1.70313 q -0.26562,-0.51562 -0.32812,-1.1875 z m -0.14063,-3.67187 q -0.89062,0.375 -2.67187,0.625 -1.01563,0.14062 -1.4375,0.32812 -0.42188,0.1875 -0.65625,0.53125 -0.21875,0.34375 -0.21875,0.78125 0,0.65625 0.5,1.09375 0.5,0.4375 1.45312,0.4375 0.9375,0 1.67188,-0.40625 0.75,-0.42187 1.09375,-1.14062 0.26562,-0.5625 0.26562,-1.64063 z m 4.15697,4.85937 V 243.7706 h 1.64062 v 13.35937 z"
       id="path47"
       inkscape:connector-curvature="0"
       style="fill:#000000;fill-rule:nonzero" />
    <path
       d="m 313.99213,230.20998 h 90.14172 v 45.88975 h -90.14172 z"
       id="path49"
       inkscape:connector-curvature="0"
       style="fill:#ffffff;fill-rule:evenodd" />
    <path
       d="m 313.99213,230.20998 h 90.14172 v 45.88975 h -90.14172 z"
       id="path51"
       inkscape:connector-curvature="0"
       style="fill-rule:evenodd;stroke:#000000;stroke-width:1;stroke-linecap:butt;stroke-linejoin:round" />
    <path
       d="M 326.75775,257.12997 323.2265,243.7706 h 1.8125 l 2.03125,8.76562 q 0.32812,1.375 0.5625,2.71875 0.5,-2.14062 0.59375,-2.46875 l 2.54687,-9.01562 h 2.125 l 1.92188,6.76562 q 0.71875,2.51563 1.03125,4.71875 0.26562,-1.26562 0.67187,-2.89062 l 2.09375,-8.59375 h 1.78125 l -3.67187,13.35937 h -1.70313 l -2.8125,-10.17187 q -0.35937,-1.28125 -0.42187,-1.5625 -0.20313,0.90625 -0.39063,1.5625 l -2.82812,10.17187 z m 15.31177,0 V 243.7706 h 9.65625 v 1.57812 h -7.875 v 4.09375 h 7.375 v 1.5625 h -7.375 v 4.54688 h 8.1875 v 1.57812 z m 11.81857,-4.29687 1.65625,-0.14063 q 0.125,1 0.54688,1.64063 0.4375,0.64062 1.34375,1.04687 0.92187,0.39063 2.0625,0.39063 1,0 1.78125,-0.29688 0.78125,-0.29687 1.15625,-0.8125 0.375,-0.53125 0.375,-1.15625 0,-0.625 -0.375,-1.09375 -0.35938,-0.46875 -1.1875,-0.79687 -0.54688,-0.20313 -2.39063,-0.64063 -1.82812,-0.45312 -2.5625,-0.84375 -0.96875,-0.5 -1.4375,-1.23437 -0.46875,-0.75 -0.46875,-1.67188 0,-1 0.57813,-1.875 0.57812,-0.89062 1.67187,-1.34375 1.10938,-0.45312 2.45313,-0.45312 1.48437,0 2.60937,0.48437 1.14063,0.46875 1.75,1.40625 0.60938,0.92188 0.65625,2.09375 l -1.6875,0.125 q -0.14062,-1.26562 -0.9375,-1.90625 -0.78125,-0.65625 -2.3125,-0.65625 -1.60937,0 -2.34375,0.59375 -0.73437,0.59375 -0.73437,1.42188 0,0.71875 0.53125,1.17187 0.5,0.46875 2.65625,0.96875 2.15625,0.48438 2.95312,0.84375 1.17188,0.53125 1.71875,1.35938 0.5625,0.82812 0.5625,1.90625 0,1.0625 -0.60937,2.01562 -0.60938,0.9375 -1.75,1.46875 -1.14063,0.51563 -2.57813,0.51563 -1.8125,0 -3.04687,-0.53125 -1.21875,-0.53125 -1.92188,-1.59375 -0.6875,-1.0625 -0.71875,-2.40625 z"
       id="path53"
       inkscape:connector-curvature="0"
       style="fill:#000000;fill-rule:nonzero" />
    <path
       d="m 473.99213,230.20998 h 90.14172 v 45.88975 h -90.14172 z"
       id="path55"
       inkscape:connector-curvature="0"
       style="fill:#ffffff;fill-rule:evenodd" />
    <path
       d="m 473.99213,230.20998 h 90.14172 v 45.88975 h -90.14172 z"
       id="path57"
       inkscape:connector-curvature="0"
       style="fill-rule:evenodd;stroke:#000000;stroke-width:1;stroke-linecap:butt;stroke-linejoin:round" />
    <path
       d="m 487.83588,257.12997 v -11.78125 h -4.40625 v -1.57812 h 10.57812 v 1.57812 h -4.40625 v 11.78125 z m 8.02097,0 V 243.7706 h 9.65625 v 1.57812 h -7.875 v 4.09375 h 7.375 v 1.5625 h -7.375 v 4.54688 h 8.1875 v 1.57812 z m 11.81857,-4.29687 1.65625,-0.14063 q 0.125,1 0.54687,1.64063 0.4375,0.64062 1.34375,1.04687 0.92188,0.39063 2.0625,0.39063 1,0 1.78125,-0.29688 0.78125,-0.29687 1.15625,-0.8125 0.375,-0.53125 0.375,-1.15625 0,-0.625 -0.375,-1.09375 -0.35937,-0.46875 -1.1875,-0.79687 -0.54687,-0.20313 -2.39062,-0.64063 -1.82813,-0.45312 -2.5625,-0.84375 -0.96875,-0.5 -1.4375,-1.23437 -0.46875,-0.75 -0.46875,-1.67188 0,-1 0.57812,-1.875 0.57813,-0.89062 1.67188,-1.34375 1.10937,-0.45312 2.45312,-0.45312 1.48438,0 2.60938,0.48437 1.14062,0.46875 1.75,1.40625 0.60937,0.92188 0.65625,2.09375 l -1.6875,0.125 q -0.14063,-1.26562 -0.9375,-1.90625 -0.78125,-0.65625 -2.3125,-0.65625 -1.60938,0 -2.34375,0.59375 -0.73438,0.59375 -0.73438,1.42188 0,0.71875 0.53125,1.17187 0.5,0.46875 2.65625,0.96875 2.15625,0.48438 2.95313,0.84375 1.17187,0.53125 1.71875,1.35938 0.5625,0.82812 0.5625,1.90625 0,1.0625 -0.60938,2.01562 -0.60937,0.9375 -1.75,1.46875 -1.14062,0.51563 -2.57812,0.51563 -1.8125,0 -3.04688,-0.53125 -1.21875,-0.53125 -1.92187,-1.59375 -0.6875,-1.0625 -0.71875,-2.40625 z"
       id="path59"
       inkscape:connector-curvature="0"
       style="fill:#000000;fill-rule:nonzero" />
    <path
       d="m 641.9921,230.20998 h 90.14172 v 45.88975 H 641.9921 Z"
       id="path61"
       inkscape:connector-curvature="0"
       style="fill:#ffffff;fill-rule:evenodd" />
    <path
       d="m 641.9921,230.20998 h 90.14172 v 45.88975 H 641.9921 Z"
       id="path63"
       inkscape:connector-curvature="0"
       style="fill-rule:evenodd;stroke:#000000;stroke-width:1;stroke-linecap:butt;stroke-linejoin:round" />
    <path
       d="M 652.4296,257.12997 V 243.7706 h 4.60938 q 1.54687,0 2.375,0.20312 1.14062,0.25 1.95312,0.95313 1.0625,0.89062 1.57813,2.28125 0.53125,1.39062 0.53125,3.17187 0,1.51563 -0.35938,2.70313 -0.35937,1.17187 -0.92187,1.9375 -0.54688,0.76562 -1.20313,1.21875 -0.65625,0.4375 -1.59375,0.67187 -0.9375,0.21875 -2.14062,0.21875 z m 1.76563,-1.57812 h 2.85937 q 1.3125,0 2.0625,-0.23438 0.75,-0.25 1.20313,-0.70312 0.625,-0.625 0.96875,-1.6875 0.35937,-1.0625 0.35937,-2.57813 0,-2.09375 -0.6875,-3.21875 -0.6875,-1.125 -1.67187,-1.5 -0.70313,-0.28125 -2.28125,-0.28125 h -2.8125 z m 11.73858,1.57812 V 243.7706 h 5.92188 q 1.78125,0 2.70312,0.35937 0.9375,0.35938 1.48438,1.28125 0.5625,0.90625 0.5625,2.01563 0,1.40625 -0.92188,2.39062 -0.92187,0.96875 -2.84375,1.23438 0.70313,0.34375 1.07813,0.67187 0.76562,0.70313 1.45312,1.76563 l 2.32813,3.64062 h -2.21875 l -1.76563,-2.78125 q -0.78125,-1.20312 -1.28125,-1.82812 -0.5,-0.64063 -0.90625,-0.89063 -0.39062,-0.26562 -0.79687,-0.35937 -0.29688,-0.0781 -0.98438,-0.0781 h -2.04687 v 5.9375 z m 1.76563,-7.45312 h 3.79687 q 1.21875,0 1.89063,-0.25 0.6875,-0.26563 1.04687,-0.8125 0.35938,-0.54688 0.35938,-1.1875 0,-0.95313 -0.6875,-1.5625 -0.6875,-0.60938 -2.1875,-0.60938 h -4.21875 z m 11.08227,3.15625 1.65625,-0.14063 q 0.125,1 0.54688,1.64063 0.4375,0.64062 1.34375,1.04687 0.92187,0.39063 2.0625,0.39063 1,0 1.78125,-0.29688 0.78125,-0.29687 1.15625,-0.8125 0.375,-0.53125 0.375,-1.15625 0,-0.625 -0.375,-1.09375 -0.35938,-0.46875 -1.1875,-0.79687 -0.54688,-0.20313 -2.39063,-0.64063 -1.82812,-0.45312 -2.5625,-0.84375 -0.96875,-0.5 -1.4375,-1.23437 -0.46875,-0.75 -0.46875,-1.67188 0,-1 0.57813,-1.875 0.57812,-0.89062 1.67187,-1.34375 1.10938,-0.45312 2.45313,-0.45312 1.48437,0 2.60937,0.48437 1.14063,0.46875 1.75,1.40625 0.60938,0.92188 0.65625,2.09375 l -1.6875,0.125 q -0.14062,-1.26562 -0.9375,-1.90625 -0.78125,-0.65625 -2.3125,-0.65625 -1.60937,0 -2.34375,0.59375 -0.73437,0.59375 -0.73437,1.42188 0,0.71875 0.53125,1.17187 0.5,0.46875 2.65625,0.96875 2.15625,0.48438 2.95312,0.84375 1.17188,0.53125 1.71875,1.35938 0.5625,0.82812 0.5625,1.90625 0,1.0625 -0.60937,2.01562 -0.60938,0.9375 -1.75,1.46875 -1.14063,0.51563 -2.57813,0.51563 -1.8125,0 -3.04687,-0.53125 -1.21875,-0.53125 -1.92188,-1.59375 -0.6875,-1.0625 -0.71875,-2.40625 z"
       id="path65"
       inkscape:connector-curvature="0"
       style="fill:#000000;fill-rule:nonzero" />
  </g>
</svg>
